<?xml version="1.0" encoding="UTF-8"?>
<svg xmlns="http://www.w3.org/2000/svg" xmlns:xlink="http://www.w3.org/1999/xlink" width="1920pt" height="1080pt" viewBox="0 0 1920 1080">
<defs>
<g>
<g id="glyph-0-0">
<path d="M 16.578125 -30.09375 C 16.578125 -32.75 16.875 -35.320312 17.46875 -37.8125 C 18.0625 -40.3125 19.007812 -42.539062 20.3125 -44.5 C 21.613281 -46.457031 23.3125 -48.015625 25.40625 -49.171875 C 27.507812 -50.335938 30.0625 -50.921875 33.0625 -50.921875 C 36.0625 -50.921875 38.609375 -50.335938 40.703125 -49.171875 C 42.804688 -48.015625 44.507812 -46.457031 45.8125 -44.5 C 47.113281 -42.539062 48.0625 -40.3125 48.65625 -37.8125 C 49.257812 -35.320312 49.5625 -32.75 49.5625 -30.09375 C 49.5625 -27.539062 49.257812 -25.0625 48.65625 -22.65625 C 48.0625 -20.25 47.113281 -18.082031 45.8125 -16.15625 C 44.507812 -14.226562 42.804688 -12.679688 40.703125 -11.515625 C 38.609375 -10.359375 36.0625 -9.78125 33.0625 -9.78125 C 30.0625 -9.78125 27.507812 -10.359375 25.40625 -11.515625 C 23.3125 -12.679688 21.613281 -14.226562 20.3125 -16.15625 C 19.007812 -18.082031 18.0625 -20.25 17.46875 -22.65625 C 16.875 -25.0625 16.578125 -27.539062 16.578125 -30.09375 Z M 3.234375 -30.09375 C 3.234375 -25.664062 3.910156 -21.539062 5.265625 -17.71875 C 6.628906 -13.894531 8.582031 -10.566406 11.125 -7.734375 C 13.675781 -4.898438 16.804688 -2.675781 20.515625 -1.0625 C 24.234375 0.550781 28.414062 1.359375 33.0625 1.359375 C 37.769531 1.359375 41.960938 0.550781 45.640625 -1.0625 C 49.328125 -2.675781 52.441406 -4.898438 54.984375 -7.734375 C 57.535156 -10.566406 59.492188 -13.894531 60.859375 -17.71875 C 62.222656 -21.539062 62.90625 -25.664062 62.90625 -30.09375 C 62.90625 -34.625 62.222656 -38.828125 60.859375 -42.703125 C 59.492188 -46.585938 57.535156 -49.972656 54.984375 -52.859375 C 52.441406 -55.753906 49.328125 -58.023438 45.640625 -59.671875 C 41.960938 -61.316406 37.769531 -62.140625 33.0625 -62.140625 C 28.414062 -62.140625 24.234375 -61.316406 20.515625 -59.671875 C 16.804688 -58.023438 13.675781 -55.753906 11.125 -52.859375 C 8.582031 -49.972656 6.628906 -46.585938 5.265625 -42.703125 C 3.910156 -38.828125 3.234375 -34.625 3.234375 -30.09375 Z M 3.234375 -30.09375 "/>
</g>
<g id="glyph-0-1">
<path d="M 26.78125 -7.90625 C 24.851562 -7.90625 23.207031 -8.300781 21.84375 -9.09375 C 20.488281 -9.882812 19.398438 -10.914062 18.578125 -12.1875 C 17.753906 -13.46875 17.15625 -14.957031 16.78125 -16.65625 C 16.414062 -18.351562 16.234375 -20.082031 16.234375 -21.84375 C 16.234375 -23.65625 16.398438 -25.410156 16.734375 -27.109375 C 17.078125 -28.816406 17.660156 -30.320312 18.484375 -31.625 C 19.304688 -32.925781 20.382812 -33.988281 21.71875 -34.8125 C 23.050781 -35.632812 24.707031 -36.046875 26.6875 -36.046875 C 28.613281 -36.046875 30.242188 -35.632812 31.578125 -34.8125 C 32.910156 -33.988281 34 -32.910156 34.84375 -31.578125 C 35.695312 -30.242188 36.304688 -28.726562 36.671875 -27.03125 C 37.046875 -25.332031 37.234375 -23.601562 37.234375 -21.84375 C 37.234375 -20.082031 37.0625 -18.351562 36.71875 -16.65625 C 36.375 -14.957031 35.789062 -13.46875 34.96875 -12.1875 C 34.15625 -10.914062 33.082031 -9.882812 31.75 -9.09375 C 30.414062 -8.300781 28.757812 -7.90625 26.78125 -7.90625 Z M 4.59375 -43.9375 L 4.59375 15.390625 L 16.65625 15.390625 L 16.65625 -5.4375 L 16.828125 -5.4375 C 18.304688 -3.28125 20.191406 -1.648438 22.484375 -0.546875 C 24.773438 0.554688 27.28125 1.109375 30 1.109375 C 33.226562 1.109375 36.046875 0.480469 38.453125 -0.765625 C 40.867188 -2.015625 42.882812 -3.6875 44.5 -5.78125 C 46.113281 -7.875 47.316406 -10.28125 48.109375 -13 C 48.898438 -15.71875 49.296875 -18.550781 49.296875 -21.5 C 49.296875 -24.625 48.898438 -27.613281 48.109375 -30.46875 C 47.316406 -33.332031 46.097656 -35.835938 44.453125 -37.984375 C 42.804688 -40.140625 40.738281 -41.867188 38.25 -43.171875 C 35.757812 -44.484375 32.785156 -45.140625 29.328125 -45.140625 C 26.609375 -45.140625 24.113281 -44.597656 21.84375 -43.515625 C 19.570312 -42.441406 17.703125 -40.710938 16.234375 -38.328125 L 16.0625 -38.328125 L 16.0625 -43.9375 Z M 4.59375 -43.9375 "/>
</g>
<g id="glyph-0-2">
<path d="M 19.890625 -43.9375 L 19.890625 -57.125 L 7.8125 -57.125 L 7.8125 -43.9375 L 0.515625 -43.9375 L 0.515625 -35.875 L 7.8125 -35.875 L 7.8125 -9.9375 C 7.8125 -7.726562 8.179688 -5.941406 8.921875 -4.578125 C 9.660156 -3.222656 10.664062 -2.175781 11.9375 -1.4375 C 13.21875 -0.707031 14.691406 -0.21875 16.359375 0.03125 C 18.035156 0.289062 19.804688 0.421875 21.671875 0.421875 C 22.859375 0.421875 24.078125 0.390625 25.328125 0.328125 C 26.578125 0.273438 27.710938 0.164062 28.734375 0 L 28.734375 -9.34375 C 28.160156 -9.238281 27.5625 -9.15625 26.9375 -9.09375 C 26.320312 -9.039062 25.671875 -9.015625 24.984375 -9.015625 C 22.953125 -9.015625 21.59375 -9.351562 20.90625 -10.03125 C 20.226562 -10.707031 19.890625 -12.066406 19.890625 -14.109375 L 19.890625 -35.875 L 28.734375 -35.875 L 28.734375 -43.9375 Z M 19.890625 -43.9375 "/>
</g>
<g id="glyph-0-3">
<path d="M 17 -50.75 L 17 -60.6875 L 4.9375 -60.6875 L 4.9375 -50.75 Z M 4.9375 -43.9375 L 4.9375 0 L 17 0 L 17 -43.9375 Z M 4.9375 -43.9375 "/>
</g>
<g id="glyph-0-4">
<path d="M 4.9375 -43.9375 L 4.9375 0 L 17 0 L 17 -25.5 C 17 -27.65625 17.3125 -29.394531 17.9375 -30.71875 C 18.5625 -32.050781 19.3125 -33.070312 20.1875 -33.78125 C 21.0625 -34.488281 21.96875 -34.96875 22.90625 -35.21875 C 23.84375 -35.476562 24.59375 -35.609375 25.15625 -35.609375 C 27.082031 -35.609375 28.539062 -35.28125 29.53125 -34.625 C 30.53125 -33.976562 31.238281 -33.117188 31.65625 -32.046875 C 32.082031 -30.972656 32.320312 -29.796875 32.375 -28.515625 C 32.4375 -27.242188 32.46875 -25.957031 32.46875 -24.65625 L 32.46875 0 L 44.546875 0 L 44.546875 -24.484375 C 44.546875 -25.835938 44.644531 -27.179688 44.84375 -28.515625 C 45.039062 -29.847656 45.4375 -31.035156 46.03125 -32.078125 C 46.625 -33.128906 47.441406 -33.976562 48.484375 -34.625 C 49.535156 -35.28125 50.910156 -35.609375 52.609375 -35.609375 C 54.316406 -35.609375 55.664062 -35.328125 56.65625 -34.765625 C 57.644531 -34.203125 58.394531 -33.4375 58.90625 -32.46875 C 59.414062 -31.507812 59.726562 -30.375 59.84375 -29.0625 C 59.957031 -27.757812 60.015625 -26.375 60.015625 -24.90625 L 60.015625 0 L 72.078125 0 L 72.078125 -29.40625 C 72.078125 -32.238281 71.679688 -34.660156 70.890625 -36.671875 C 70.097656 -38.679688 68.992188 -40.3125 67.578125 -41.5625 C 66.160156 -42.8125 64.457031 -43.71875 62.46875 -44.28125 C 60.488281 -44.851562 58.335938 -45.140625 56.015625 -45.140625 C 52.953125 -45.140625 50.300781 -44.398438 48.0625 -42.921875 C 45.820312 -41.453125 44.050781 -39.753906 42.75 -37.828125 C 41.5625 -40.546875 39.816406 -42.441406 37.515625 -43.515625 C 35.222656 -44.597656 32.691406 -45.140625 29.921875 -45.140625 C 27.023438 -45.140625 24.457031 -44.515625 22.21875 -43.265625 C 19.988281 -42.015625 18.078125 -40.257812 16.484375 -38 L 16.3125 -38 L 16.3125 -43.9375 Z M 4.9375 -43.9375 "/>
</g>
<g id="glyph-0-5">
<path d="M 13.9375 -14.28125 L 2.46875 -14.28125 C 2.582031 -11.332031 3.25 -8.878906 4.46875 -6.921875 C 5.6875 -4.972656 7.242188 -3.398438 9.140625 -2.203125 C 11.035156 -1.015625 13.203125 -0.164062 15.640625 0.34375 C 18.078125 0.851562 20.570312 1.109375 23.125 1.109375 C 25.613281 1.109375 28.0625 0.863281 30.46875 0.375 C 32.875 -0.101562 35.007812 -0.9375 36.875 -2.125 C 38.75 -3.3125 40.269531 -4.882812 41.4375 -6.84375 C 42.601562 -8.800781 43.1875 -11.222656 43.1875 -14.109375 C 43.1875 -16.148438 42.785156 -17.863281 41.984375 -19.25 C 41.191406 -20.632812 40.144531 -21.796875 38.84375 -22.734375 C 37.539062 -23.671875 36.050781 -24.421875 34.375 -24.984375 C 32.707031 -25.554688 30.992188 -26.039062 29.234375 -26.4375 C 27.535156 -26.832031 25.863281 -27.195312 24.21875 -27.53125 C 22.582031 -27.875 21.125 -28.257812 19.84375 -28.6875 C 18.570312 -29.113281 17.539062 -29.664062 16.75 -30.34375 C 15.957031 -31.019531 15.5625 -31.898438 15.5625 -32.984375 C 15.5625 -33.890625 15.785156 -34.609375 16.234375 -35.140625 C 16.691406 -35.679688 17.242188 -36.09375 17.890625 -36.375 C 18.546875 -36.664062 19.269531 -36.851562 20.0625 -36.9375 C 20.851562 -37.019531 21.585938 -37.0625 22.265625 -37.0625 C 24.421875 -37.0625 26.289062 -36.648438 27.875 -35.828125 C 29.46875 -35.003906 30.347656 -33.429688 30.515625 -31.109375 L 41.984375 -31.109375 C 41.765625 -33.828125 41.070312 -36.078125 39.90625 -37.859375 C 38.75 -39.648438 37.289062 -41.082031 35.53125 -42.15625 C 33.769531 -43.238281 31.769531 -44.003906 29.53125 -44.453125 C 27.300781 -44.910156 24.992188 -45.140625 22.609375 -45.140625 C 20.234375 -45.140625 17.910156 -44.925781 15.640625 -44.5 C 13.367188 -44.070312 11.328125 -43.332031 9.515625 -42.28125 C 7.703125 -41.238281 6.242188 -39.8125 5.140625 -38 C 4.035156 -36.1875 3.484375 -33.863281 3.484375 -31.03125 C 3.484375 -29.101562 3.878906 -27.472656 4.671875 -26.140625 C 5.460938 -24.804688 6.507812 -23.695312 7.8125 -22.8125 C 9.125 -21.9375 10.613281 -21.226562 12.28125 -20.6875 C 13.957031 -20.15625 15.671875 -19.691406 17.421875 -19.296875 C 21.734375 -18.390625 25.09375 -17.484375 27.5 -16.578125 C 29.90625 -15.671875 31.109375 -14.3125 31.109375 -12.5 C 31.109375 -11.414062 30.851562 -10.519531 30.34375 -9.8125 C 29.832031 -9.101562 29.191406 -8.535156 28.421875 -8.109375 C 27.660156 -7.691406 26.8125 -7.382812 25.875 -7.1875 C 24.945312 -6.988281 24.054688 -6.890625 23.203125 -6.890625 C 22.015625 -6.890625 20.867188 -7.03125 19.765625 -7.3125 C 18.660156 -7.59375 17.679688 -8.03125 16.828125 -8.625 C 15.984375 -9.21875 15.289062 -9.984375 14.75 -10.921875 C 14.207031 -11.859375 13.9375 -12.976562 13.9375 -14.28125 Z M 13.9375 -14.28125 "/>
</g>
<g id="glyph-0-6">
<path d="M 4.078125 -30.4375 C 4.242188 -33.269531 4.953125 -35.617188 6.203125 -37.484375 C 7.453125 -39.359375 9.039062 -40.859375 10.96875 -41.984375 C 12.894531 -43.117188 15.0625 -43.925781 17.46875 -44.40625 C 19.875 -44.894531 22.296875 -45.140625 24.734375 -45.140625 C 26.941406 -45.140625 29.175781 -44.984375 31.4375 -44.671875 C 33.707031 -44.359375 35.773438 -43.75 37.640625 -42.84375 C 39.515625 -41.9375 41.046875 -40.675781 42.234375 -39.0625 C 43.429688 -37.445312 44.03125 -35.304688 44.03125 -32.640625 L 44.03125 -9.78125 C 44.03125 -7.789062 44.140625 -5.890625 44.359375 -4.078125 C 44.585938 -2.265625 44.988281 -0.90625 45.5625 0 L 33.3125 0 C 33.09375 -0.675781 32.910156 -1.367188 32.765625 -2.078125 C 32.628906 -2.785156 32.53125 -3.507812 32.46875 -4.25 C 30.539062 -2.269531 28.273438 -0.878906 25.671875 -0.078125 C 23.066406 0.710938 20.40625 1.109375 17.6875 1.109375 C 15.582031 1.109375 13.625 0.851562 11.8125 0.34375 C 10 -0.164062 8.410156 -0.957031 7.046875 -2.03125 C 5.691406 -3.113281 4.628906 -4.472656 3.859375 -6.109375 C 3.097656 -7.753906 2.71875 -9.710938 2.71875 -11.984375 C 2.71875 -14.472656 3.15625 -16.523438 4.03125 -18.140625 C 4.914062 -19.753906 6.050781 -21.039062 7.4375 -22 C 8.820312 -22.96875 10.40625 -23.691406 12.1875 -24.171875 C 13.976562 -24.660156 15.78125 -25.046875 17.59375 -25.328125 C 19.40625 -25.609375 21.1875 -25.832031 22.9375 -26 C 24.695312 -26.175781 26.257812 -26.429688 27.625 -26.765625 C 28.988281 -27.109375 30.066406 -27.601562 30.859375 -28.25 C 31.648438 -28.90625 32.015625 -29.859375 31.953125 -31.109375 C 31.953125 -32.410156 31.738281 -33.441406 31.3125 -34.203125 C 30.894531 -34.972656 30.332031 -35.570312 29.625 -36 C 28.914062 -36.425781 28.09375 -36.707031 27.15625 -36.84375 C 26.21875 -36.988281 25.210938 -37.0625 24.140625 -37.0625 C 21.753906 -37.0625 19.878906 -36.550781 18.515625 -35.53125 C 17.160156 -34.507812 16.375 -32.8125 16.15625 -30.4375 Z M 31.953125 -21.5 C 31.441406 -21.050781 30.804688 -20.695312 30.046875 -20.4375 C 29.285156 -20.1875 28.460938 -19.972656 27.578125 -19.796875 C 26.703125 -19.628906 25.78125 -19.488281 24.8125 -19.375 C 23.851562 -19.257812 22.894531 -19.117188 21.9375 -18.953125 C 21.019531 -18.785156 20.125 -18.554688 19.25 -18.265625 C 18.375 -17.984375 17.609375 -17.601562 16.953125 -17.125 C 16.304688 -16.644531 15.785156 -16.035156 15.390625 -15.296875 C 14.992188 -14.554688 14.796875 -13.625 14.796875 -12.5 C 14.796875 -11.414062 14.992188 -10.503906 15.390625 -9.765625 C 15.785156 -9.035156 16.320312 -8.457031 17 -8.03125 C 17.675781 -7.601562 18.46875 -7.304688 19.375 -7.140625 C 20.28125 -6.972656 21.21875 -6.890625 22.1875 -6.890625 C 24.5625 -6.890625 26.398438 -7.285156 27.703125 -8.078125 C 29.015625 -8.867188 29.976562 -9.816406 30.59375 -10.921875 C 31.21875 -12.023438 31.597656 -13.144531 31.734375 -14.28125 C 31.878906 -15.414062 31.953125 -16.320312 31.953125 -17 Z M 31.953125 -21.5 "/>
</g>
<g id="glyph-0-7">
<path d="M 15.296875 -21.9375 C 15.296875 -23.6875 15.460938 -25.410156 15.796875 -27.109375 C 16.140625 -28.816406 16.722656 -30.320312 17.546875 -31.625 C 18.367188 -32.925781 19.457031 -33.988281 20.8125 -34.8125 C 22.175781 -35.632812 23.878906 -36.046875 25.921875 -36.046875 C 27.960938 -36.046875 29.675781 -35.632812 31.0625 -34.8125 C 32.457031 -33.988281 33.5625 -32.925781 34.375 -31.625 C 35.195312 -30.320312 35.78125 -28.816406 36.125 -27.109375 C 36.46875 -25.410156 36.640625 -23.6875 36.640625 -21.9375 C 36.640625 -20.175781 36.46875 -18.457031 36.125 -16.78125 C 35.78125 -15.113281 35.195312 -13.613281 34.375 -12.28125 C 33.5625 -10.945312 32.457031 -9.882812 31.0625 -9.09375 C 29.675781 -8.300781 27.960938 -7.90625 25.921875 -7.90625 C 23.878906 -7.90625 22.175781 -8.300781 20.8125 -9.09375 C 19.457031 -9.882812 18.367188 -10.945312 17.546875 -12.28125 C 16.722656 -13.613281 16.140625 -15.113281 15.796875 -16.78125 C 15.460938 -18.457031 15.296875 -20.175781 15.296875 -21.9375 Z M 3.234375 -21.9375 C 3.234375 -18.414062 3.769531 -15.238281 4.84375 -12.40625 C 5.914062 -9.570312 7.441406 -7.148438 9.421875 -5.140625 C 11.410156 -3.128906 13.789062 -1.582031 16.5625 -0.5 C 19.34375 0.570312 22.460938 1.109375 25.921875 1.109375 C 29.378906 1.109375 32.507812 0.570312 35.3125 -0.5 C 38.125 -1.582031 40.519531 -3.128906 42.5 -5.140625 C 44.476562 -7.148438 46.003906 -9.570312 47.078125 -12.40625 C 48.160156 -15.238281 48.703125 -18.414062 48.703125 -21.9375 C 48.703125 -25.445312 48.160156 -28.628906 47.078125 -31.484375 C 46.003906 -34.347656 44.476562 -36.785156 42.5 -38.796875 C 40.519531 -40.804688 38.125 -42.363281 35.3125 -43.46875 C 32.507812 -44.582031 29.378906 -45.140625 25.921875 -45.140625 C 22.460938 -45.140625 19.34375 -44.582031 16.5625 -43.46875 C 13.789062 -42.363281 11.410156 -40.804688 9.421875 -38.796875 C 7.441406 -36.785156 5.914062 -34.347656 4.84375 -31.484375 C 3.769531 -28.628906 3.234375 -25.445312 3.234375 -21.9375 Z M 3.234375 -21.9375 "/>
</g>
<g id="glyph-0-8">
<path d="M 4.59375 -43.9375 L 4.59375 0 L 16.65625 0 L 16.65625 -23.03125 C 16.65625 -27.507812 17.390625 -30.722656 18.859375 -32.671875 C 20.335938 -34.628906 22.722656 -35.609375 26.015625 -35.609375 C 28.898438 -35.609375 30.910156 -34.71875 32.046875 -32.9375 C 33.179688 -31.15625 33.75 -28.445312 33.75 -24.8125 L 33.75 0 L 45.8125 0 L 45.8125 -27.03125 C 45.8125 -29.75 45.570312 -32.226562 45.09375 -34.46875 C 44.613281 -36.707031 43.773438 -38.601562 42.578125 -40.15625 C 41.390625 -41.71875 39.757812 -42.9375 37.6875 -43.8125 C 35.625 -44.695312 32.976562 -45.140625 29.75 -45.140625 C 27.195312 -45.140625 24.703125 -44.554688 22.265625 -43.390625 C 19.828125 -42.234375 17.84375 -40.378906 16.3125 -37.828125 L 16.0625 -37.828125 L 16.0625 -43.9375 Z M 4.59375 -43.9375 "/>
</g>
<g id="glyph-0-9">
</g>
<g id="glyph-0-10">
<path d="M 33.3125 0 L 33.3125 -59.5 L 23.71875 -59.5 C 23.375 -57.226562 22.660156 -55.328125 21.578125 -53.796875 C 20.503906 -52.273438 19.1875 -51.046875 17.625 -50.109375 C 16.070312 -49.171875 14.316406 -48.515625 12.359375 -48.140625 C 10.410156 -47.773438 8.390625 -47.625 6.296875 -47.6875 L 6.296875 -38.59375 L 21.25 -38.59375 L 21.25 0 Z M 33.3125 0 "/>
</g>
<g id="glyph-0-11">
<path d="M 4.5 -28.390625 L 4.5 -18.015625 L 30.09375 -18.015625 L 30.09375 -28.390625 Z M 4.5 -28.390625 "/>
</g>
<g id="glyph-0-12">
<path d="M 19.203125 -33.234375 L 19.203125 -50.3125 L 33.828125 -50.3125 C 36.890625 -50.3125 39.1875 -49.644531 40.71875 -48.3125 C 42.25 -46.988281 43.015625 -44.851562 43.015625 -41.90625 C 43.015625 -38.84375 42.25 -36.628906 40.71875 -35.265625 C 39.1875 -33.910156 36.890625 -33.234375 33.828125 -33.234375 Z M 5.859375 -60.6875 L 5.859375 0 L 19.203125 0 L 19.203125 -23.71875 L 32.5625 -23.71875 C 35.894531 -23.71875 38.296875 -22.976562 39.765625 -21.5 C 41.242188 -20.03125 42.210938 -17.707031 42.671875 -14.53125 C 43.015625 -12.09375 43.269531 -9.539062 43.4375 -6.875 C 43.601562 -4.21875 44.054688 -1.925781 44.796875 0 L 58.140625 0 C 57.515625 -0.851562 57.046875 -1.890625 56.734375 -3.109375 C 56.421875 -4.328125 56.191406 -5.613281 56.046875 -6.96875 C 55.910156 -8.332031 55.8125 -9.664062 55.75 -10.96875 C 55.695312 -12.269531 55.644531 -13.398438 55.59375 -14.359375 C 55.476562 -15.890625 55.265625 -17.421875 54.953125 -18.953125 C 54.640625 -20.484375 54.140625 -21.882812 53.453125 -23.15625 C 52.773438 -24.4375 51.898438 -25.539062 50.828125 -26.46875 C 49.753906 -27.40625 48.394531 -28.101562 46.75 -28.5625 L 46.75 -28.734375 C 50.144531 -30.085938 52.59375 -32.066406 54.09375 -34.671875 C 55.601562 -37.285156 56.359375 -40.375 56.359375 -43.9375 C 56.359375 -46.269531 55.945312 -48.441406 55.125 -50.453125 C 54.300781 -52.460938 53.109375 -54.234375 51.546875 -55.765625 C 49.992188 -57.296875 48.125 -58.5 45.9375 -59.375 C 43.757812 -60.25 41.3125 -60.6875 38.59375 -60.6875 Z M 5.859375 -60.6875 "/>
</g>
<g id="glyph-0-13">
<path d="M 34.171875 -26.6875 L 14.53125 -26.6875 C 14.59375 -27.539062 14.78125 -28.503906 15.09375 -29.578125 C 15.40625 -30.648438 15.941406 -31.664062 16.703125 -32.625 C 17.460938 -33.59375 18.476562 -34.40625 19.75 -35.0625 C 21.03125 -35.71875 22.632812 -36.046875 24.5625 -36.046875 C 27.507812 -36.046875 29.703125 -35.25 31.140625 -33.65625 C 32.585938 -32.070312 33.597656 -29.75 34.171875 -26.6875 Z M 14.53125 -19.046875 L 46.234375 -19.046875 C 46.460938 -22.441406 46.179688 -25.695312 45.390625 -28.8125 C 44.597656 -31.925781 43.304688 -34.703125 41.515625 -37.140625 C 39.734375 -39.578125 37.453125 -41.519531 34.671875 -42.96875 C 31.898438 -44.414062 28.644531 -45.140625 24.90625 -45.140625 C 21.5625 -45.140625 18.515625 -44.539062 15.765625 -43.34375 C 13.015625 -42.15625 10.644531 -40.523438 8.65625 -38.453125 C 6.675781 -36.390625 5.148438 -33.941406 4.078125 -31.109375 C 3.003906 -28.273438 2.46875 -25.21875 2.46875 -21.9375 C 2.46875 -18.53125 2.988281 -15.410156 4.03125 -12.578125 C 5.082031 -9.742188 6.570312 -7.304688 8.5 -5.265625 C 10.425781 -3.222656 12.773438 -1.648438 15.546875 -0.546875 C 18.328125 0.554688 21.445312 1.109375 24.90625 1.109375 C 29.894531 1.109375 34.144531 -0.0195312 37.65625 -2.28125 C 41.164062 -4.550781 43.769531 -8.320312 45.46875 -13.59375 L 34.84375 -13.59375 C 34.445312 -12.238281 33.367188 -10.953125 31.609375 -9.734375 C 29.859375 -8.515625 27.765625 -7.90625 25.328125 -7.90625 C 21.929688 -7.90625 19.328125 -8.78125 17.515625 -10.53125 C 15.703125 -12.289062 14.707031 -15.128906 14.53125 -19.046875 Z M 14.53125 -19.046875 "/>
</g>
<g id="glyph-0-14">
<path d="M 35.78125 -22.09375 C 35.78125 -20.28125 35.609375 -18.523438 35.265625 -16.828125 C 34.929688 -15.128906 34.367188 -13.613281 33.578125 -12.28125 C 32.785156 -10.945312 31.722656 -9.882812 30.390625 -9.09375 C 29.054688 -8.300781 27.398438 -7.90625 25.421875 -7.90625 C 23.546875 -7.90625 21.941406 -8.316406 20.609375 -9.140625 C 19.273438 -9.960938 18.171875 -11.035156 17.296875 -12.359375 C 16.421875 -13.691406 15.785156 -15.207031 15.390625 -16.90625 C 14.992188 -18.613281 14.796875 -20.316406 14.796875 -22.015625 C 14.796875 -23.828125 14.976562 -25.566406 15.34375 -27.234375 C 15.707031 -28.910156 16.300781 -30.398438 17.125 -31.703125 C 17.945312 -33.003906 19.035156 -34.050781 20.390625 -34.84375 C 21.753906 -35.644531 23.429688 -36.046875 25.421875 -36.046875 C 27.398438 -36.046875 29.039062 -35.644531 30.34375 -34.84375 C 31.644531 -34.050781 32.707031 -33.015625 33.53125 -31.734375 C 34.351562 -30.460938 34.929688 -28.988281 35.265625 -27.3125 C 35.609375 -25.644531 35.78125 -23.90625 35.78125 -22.09375 Z M 35.953125 -5.609375 L 35.953125 0 L 47.4375 0 L 47.4375 -60.6875 L 35.359375 -60.6875 L 35.359375 -38.59375 L 35.1875 -38.59375 C 33.832031 -40.738281 31.976562 -42.363281 29.625 -43.46875 C 27.269531 -44.582031 24.789062 -45.140625 22.1875 -45.140625 C 18.957031 -45.140625 16.125 -44.5 13.6875 -43.21875 C 11.25 -41.945312 9.222656 -40.257812 7.609375 -38.15625 C 5.992188 -36.0625 4.773438 -33.640625 3.953125 -30.890625 C 3.128906 -28.148438 2.71875 -25.304688 2.71875 -22.359375 C 2.71875 -19.296875 3.128906 -16.347656 3.953125 -13.515625 C 4.773438 -10.679688 5.992188 -8.171875 7.609375 -5.984375 C 9.222656 -3.804688 11.273438 -2.078125 13.765625 -0.796875 C 16.265625 0.472656 19.15625 1.109375 22.4375 1.109375 C 25.332031 1.109375 27.925781 0.582031 30.21875 -0.46875 C 32.507812 -1.519531 34.363281 -3.234375 35.78125 -5.609375 Z M 35.953125 -5.609375 "/>
</g>
<g id="glyph-0-15">
<path d="M 45.8125 0 L 45.8125 -43.9375 L 33.75 -43.9375 L 33.75 -20.90625 C 33.75 -16.425781 33.007812 -13.207031 31.53125 -11.25 C 30.0625 -9.300781 27.679688 -8.328125 24.390625 -8.328125 C 21.503906 -8.328125 19.492188 -9.21875 18.359375 -11 C 17.222656 -12.789062 16.65625 -15.5 16.65625 -19.125 L 16.65625 -43.9375 L 4.59375 -43.9375 L 4.59375 -16.921875 C 4.59375 -14.191406 4.832031 -11.707031 5.3125 -9.46875 C 5.789062 -7.238281 6.625 -5.34375 7.8125 -3.78125 C 9.007812 -2.21875 10.640625 -1.007812 12.703125 -0.15625 C 14.773438 0.6875 17.425781 1.109375 20.65625 1.109375 C 23.207031 1.109375 25.703125 0.539062 28.140625 -0.59375 C 30.578125 -1.726562 32.554688 -3.570312 34.078125 -6.125 L 34.34375 -6.125 L 34.34375 0 Z M 45.8125 0 "/>
</g>
<g id="glyph-0-16">
<path d="M 34.515625 -28.46875 L 46.328125 -28.46875 C 46.148438 -31.300781 45.46875 -33.753906 44.28125 -35.828125 C 43.09375 -37.898438 41.550781 -39.628906 39.65625 -41.015625 C 37.757812 -42.398438 35.601562 -43.429688 33.1875 -44.109375 C 30.78125 -44.796875 28.273438 -45.140625 25.671875 -45.140625 C 22.097656 -45.140625 18.921875 -44.539062 16.140625 -43.34375 C 13.367188 -42.15625 11.019531 -40.5 9.09375 -38.375 C 7.164062 -36.25 5.707031 -33.726562 4.71875 -30.8125 C 3.726562 -27.894531 3.234375 -24.734375 3.234375 -21.328125 C 3.234375 -18.046875 3.769531 -15.03125 4.84375 -12.28125 C 5.914062 -9.53125 7.414062 -7.160156 9.34375 -5.171875 C 11.269531 -3.191406 13.609375 -1.648438 16.359375 -0.546875 C 19.109375 0.554688 22.128906 1.109375 25.421875 1.109375 C 31.253906 1.109375 36.039062 -0.421875 39.78125 -3.484375 C 43.519531 -6.546875 45.785156 -10.992188 46.578125 -16.828125 L 34.9375 -16.828125 C 34.539062 -14.109375 33.5625 -11.941406 32 -10.328125 C 30.445312 -8.710938 28.222656 -7.90625 25.328125 -7.90625 C 23.460938 -7.90625 21.875 -8.328125 20.5625 -9.171875 C 19.257812 -10.023438 18.222656 -11.117188 17.453125 -12.453125 C 16.691406 -13.785156 16.140625 -15.269531 15.796875 -16.90625 C 15.460938 -18.550781 15.296875 -20.171875 15.296875 -21.765625 C 15.296875 -23.398438 15.460938 -25.050781 15.796875 -26.71875 C 16.140625 -28.394531 16.722656 -29.925781 17.546875 -31.3125 C 18.367188 -32.707031 19.429688 -33.84375 20.734375 -34.71875 C 22.035156 -35.601562 23.648438 -36.046875 25.578125 -36.046875 C 30.734375 -36.046875 33.710938 -33.519531 34.515625 -28.46875 Z M 34.515625 -28.46875 "/>
</g>
<g id="glyph-0-17">
<path d="M 4.59375 -43.9375 L 4.59375 0 L 16.65625 0 L 16.65625 -19.8125 C 16.65625 -21.789062 16.851562 -23.628906 17.25 -25.328125 C 17.644531 -27.023438 18.3125 -28.507812 19.25 -29.78125 C 20.1875 -31.0625 21.421875 -32.070312 22.953125 -32.8125 C 24.484375 -33.550781 26.351562 -33.921875 28.5625 -33.921875 C 29.300781 -33.921875 30.066406 -33.875 30.859375 -33.78125 C 31.648438 -33.695312 32.328125 -33.597656 32.890625 -33.484375 L 32.890625 -44.703125 C 31.929688 -44.992188 31.054688 -45.140625 30.265625 -45.140625 C 28.734375 -45.140625 27.257812 -44.910156 25.84375 -44.453125 C 24.425781 -44.003906 23.09375 -43.367188 21.84375 -42.546875 C 20.59375 -41.722656 19.484375 -40.726562 18.515625 -39.5625 C 17.554688 -38.40625 16.796875 -37.144531 16.234375 -35.78125 L 16.0625 -35.78125 L 16.0625 -43.9375 Z M 4.59375 -43.9375 "/>
</g>
<g id="glyph-0-18">
<path d="M 4.9375 -60.6875 L 4.9375 0 L 17 0 L 17 -60.6875 Z M 4.9375 -60.6875 "/>
</g>
<g id="glyph-1-0">
</g>
<g id="glyph-1-1">
<path d="M 6.40625 0 L 6.40625 -12.765625 L 5.234375 -12.765625 C 5.148438 -12.285156 4.992188 -11.890625 4.765625 -11.578125 C 4.535156 -11.265625 4.253906 -11.015625 3.921875 -10.828125 C 3.597656 -10.648438 3.234375 -10.53125 2.828125 -10.46875 C 2.421875 -10.40625 2 -10.375 1.5625 -10.375 L 1.5625 -9.140625 L 4.875 -9.140625 L 4.875 0 Z M 6.40625 0 "/>
</g>
<g id="glyph-1-2">
<path d="M 2.796875 -9.453125 C 2.796875 -9.773438 2.851562 -10.054688 2.96875 -10.296875 C 3.09375 -10.535156 3.253906 -10.738281 3.453125 -10.90625 C 3.648438 -11.070312 3.882812 -11.195312 4.15625 -11.28125 C 4.4375 -11.363281 4.722656 -11.40625 5.015625 -11.40625 C 5.640625 -11.40625 6.148438 -11.238281 6.546875 -10.90625 C 6.953125 -10.582031 7.15625 -10.097656 7.15625 -9.453125 C 7.15625 -8.804688 6.957031 -8.300781 6.5625 -7.9375 C 6.164062 -7.570312 5.664062 -7.390625 5.0625 -7.390625 C 4.75 -7.390625 4.453125 -7.429688 4.171875 -7.515625 C 3.898438 -7.609375 3.660156 -7.738281 3.453125 -7.90625 C 3.253906 -8.070312 3.09375 -8.28125 2.96875 -8.53125 C 2.851562 -8.789062 2.796875 -9.097656 2.796875 -9.453125 Z M 1.171875 -9.5 C 1.171875 -8.925781 1.332031 -8.394531 1.65625 -7.90625 C 1.976562 -7.425781 2.410156 -7.078125 2.953125 -6.859375 C 2.234375 -6.609375 1.679688 -6.203125 1.296875 -5.640625 C 0.910156 -5.085938 0.71875 -4.429688 0.71875 -3.671875 C 0.71875 -3.023438 0.828125 -2.457031 1.046875 -1.96875 C 1.273438 -1.476562 1.582031 -1.070312 1.96875 -0.75 C 2.363281 -0.425781 2.820312 -0.1875 3.34375 -0.03125 C 3.875 0.121094 4.445312 0.203125 5.0625 0.203125 C 5.644531 0.203125 6.191406 0.117188 6.703125 -0.046875 C 7.222656 -0.222656 7.671875 -0.472656 8.046875 -0.796875 C 8.429688 -1.128906 8.734375 -1.535156 8.953125 -2.015625 C 9.171875 -2.492188 9.28125 -3.046875 9.28125 -3.671875 C 9.28125 -4.460938 9.09375 -5.128906 8.71875 -5.671875 C 8.351562 -6.222656 7.785156 -6.617188 7.015625 -6.859375 C 7.554688 -7.097656 7.984375 -7.453125 8.296875 -7.921875 C 8.617188 -8.398438 8.78125 -8.925781 8.78125 -9.5 C 8.78125 -9.90625 8.707031 -10.300781 8.5625 -10.6875 C 8.425781 -11.082031 8.203125 -11.429688 7.890625 -11.734375 C 7.585938 -12.046875 7.1875 -12.296875 6.6875 -12.484375 C 6.195312 -12.671875 5.601562 -12.765625 4.90625 -12.765625 C 4.414062 -12.765625 3.945312 -12.691406 3.5 -12.546875 C 3.050781 -12.398438 2.648438 -12.1875 2.296875 -11.90625 C 1.953125 -11.632812 1.675781 -11.296875 1.46875 -10.890625 C 1.269531 -10.492188 1.171875 -10.03125 1.171875 -9.5 Z M 2.34375 -3.59375 C 2.34375 -3.96875 2.410156 -4.304688 2.546875 -4.609375 C 2.679688 -4.910156 2.867188 -5.164062 3.109375 -5.375 C 3.359375 -5.59375 3.648438 -5.757812 3.984375 -5.875 C 4.316406 -5.988281 4.671875 -6.046875 5.046875 -6.046875 C 5.398438 -6.046875 5.734375 -5.984375 6.046875 -5.859375 C 6.367188 -5.734375 6.648438 -5.5625 6.890625 -5.34375 C 7.128906 -5.125 7.316406 -4.867188 7.453125 -4.578125 C 7.597656 -4.285156 7.671875 -3.96875 7.671875 -3.625 C 7.671875 -3.257812 7.609375 -2.925781 7.484375 -2.625 C 7.359375 -2.320312 7.175781 -2.0625 6.9375 -1.84375 C 6.707031 -1.625 6.429688 -1.453125 6.109375 -1.328125 C 5.796875 -1.203125 5.445312 -1.140625 5.0625 -1.140625 C 4.269531 -1.140625 3.617188 -1.359375 3.109375 -1.796875 C 2.597656 -2.234375 2.34375 -2.832031 2.34375 -3.59375 Z M 2.34375 -3.59375 "/>
</g>
</g>
</defs>
<rect x="-192" y="-108" width="2304" height="1296" fill="rgb(100%, 100%, 100%)" fill-opacity="1"/>
<g fill="rgb(0%, 0%, 0%)" fill-opacity="1">
<use xlink:href="#glyph-0-0" x="99" y="171.0898"/>
<use xlink:href="#glyph-0-1" x="163.43" y="171.0898"/>
<use xlink:href="#glyph-0-2" x="213.665" y="171.0898"/>
<use xlink:href="#glyph-0-3" x="241.885" y="171.0898"/>
<use xlink:href="#glyph-0-4" x="262.115" y="171.0898"/>
<use xlink:href="#glyph-0-3" x="337.425" y="171.0898"/>
<use xlink:href="#glyph-0-5" x="357.655" y="171.0898"/>
<use xlink:href="#glyph-0-6" x="401.6" y="171.0898"/>
<use xlink:href="#glyph-0-2" x="448.69" y="171.0898"/>
<use xlink:href="#glyph-0-3" x="476.91" y="171.0898"/>
<use xlink:href="#glyph-0-7" x="497.14" y="171.0898"/>
<use xlink:href="#glyph-0-8" x="547.375" y="171.0898"/>
</g>
<g fill="rgb(0%, 0%, 0%)" fill-opacity="1">
<use xlink:href="#glyph-0-9" x="596.08" y="171.0898"/>
</g>
<g fill="rgb(0%, 0%, 0%)" fill-opacity="1">
<use xlink:href="#glyph-0-10" x="618.01" y="171.0898"/>
</g>
<g fill="rgb(0%, 0%, 0%)" fill-opacity="1">
<use xlink:href="#glyph-0-9" x="663.57" y="171.0898"/>
</g>
<g fill="rgb(0%, 0%, 0%)" fill-opacity="1">
<use xlink:href="#glyph-0-11" x="685.5" y="171.0898"/>
</g>
<g fill="rgb(0%, 0%, 0%)" fill-opacity="1">
<use xlink:href="#glyph-0-9" x="718.395" y="171.0898"/>
</g>
<g fill="rgb(0%, 0%, 0%)" fill-opacity="1">
<use xlink:href="#glyph-0-12" x="740.325" y="171.0898"/>
<use xlink:href="#glyph-0-13" x="799.995" y="171.0898"/>
<use xlink:href="#glyph-0-14" x="847.085" y="171.0898"/>
<use xlink:href="#glyph-0-15" x="897.32" y="171.0898"/>
<use xlink:href="#glyph-0-16" x="946.025" y="171.0898"/>
<use xlink:href="#glyph-0-13" x="993.115" y="171.0898"/>
<use xlink:href="#glyph-0-17" x="1040.205" y="171.0898"/>
</g>
<g fill="rgb(0%, 0%, 0%)" fill-opacity="1">
<use xlink:href="#glyph-0-9" x="1071.57" y="171.0898"/>
</g>
<g fill="rgb(0%, 0%, 0%)" fill-opacity="1">
<use xlink:href="#glyph-0-1" x="1093.5" y="171.0898"/>
<use xlink:href="#glyph-0-18" x="1143.735" y="171.0898"/>
<use xlink:href="#glyph-0-6" x="1163.965" y="171.0898"/>
<use xlink:href="#glyph-0-16" x="1211.055" y="171.0898"/>
<use xlink:href="#glyph-0-13" x="1258.145" y="171.0898"/>
<use xlink:href="#glyph-0-4" x="1305.235" y="171.0898"/>
<use xlink:href="#glyph-0-13" x="1380.545" y="171.0898"/>
<use xlink:href="#glyph-0-8" x="1427.635" y="171.0898"/>
<use xlink:href="#glyph-0-2" x="1476.34" y="171.0898"/>
</g>
<g fill="rgb(0%, 0%, 0%)" fill-opacity="1">
<use xlink:href="#glyph-1-0" x="1854.5" y="1051.66202"/>
</g>
<g fill="rgb(0%, 0%, 0%)" fill-opacity="1">
<use xlink:href="#glyph-1-1" x="1854.5" y="1051.66202"/>
<use xlink:href="#glyph-1-2" x="1864.508" y="1051.66202"/>
</g>
</svg>
